<svg xmlns="http://www.w3.org/2000/svg" viewBox="0 0 400 300" width="200" height="150">
  <rect width="100%" height="100%" fill="#f3f4f6" />
  <g fill="#9ca3af">
    <path d="M200 80c-26.5 0-48 21.5-48 48s21.5 48 48 48 48-21.5 48-48-21.5-48-48-48zm0 80c-17.7 0-32-14.3-32-32s14.3-32 32-32 32 14.3 32 32-14.3 32-32 32z"/>
    <path d="M350 250H50c-11 0-20-9-20-20V70c0-11 9-20 20-20h300c11 0 20 9 20 20v160c0 11-9 20-20 20zM50 60c-5.5 0-10 4.5-10 10v160c0 5.5 4.5 10 10 10h300c5.5 0 10-4.5 10-10V70c0-5.5-4.5-10-10-10H50z"/>
    <path d="M150 170l-50 60h200l-70-90-50 60-30-30z"/>
  </g>
  <text x="50%" y="95%" fill="#9ca3af" font-size="18" text-anchor="middle" font-family="sans-serif">No Image Available</text>
</svg>